<svg width="112" height="67" viewBox="0 0 112 67" fill="none" xmlns="http://www.w3.org/2000/svg">
<circle cx="33.5" cy="33.5" r="33.5" fill="#69B130"/>
<path d="M30.3027 37.8047H21.9629L20.0898 43H17.3828L24.9844 23.0938H27.2812L34.8965 43H32.2031L30.3027 37.8047ZM22.7559 35.6445H29.5234L26.1328 26.334L22.7559 35.6445ZM44.3301 30.4766C43.9473 30.4128 43.5326 30.3809 43.0859 30.3809C41.4271 30.3809 40.3014 31.0872 39.709 32.5V43H37.1797V28.207H39.6406L39.6816 29.916C40.5111 28.5944 41.6868 27.9336 43.209 27.9336C43.7012 27.9336 44.0749 27.9974 44.3301 28.125V30.4766ZM53.8184 30.4766C53.4355 30.4128 53.0208 30.3809 52.5742 30.3809C50.9154 30.3809 49.7897 31.0872 49.1973 32.5V43H46.668V28.207H49.1289L49.1699 29.916C49.9993 28.5944 51.1751 27.9336 52.6973 27.9336C53.1895 27.9336 53.5632 27.9974 53.8184 28.125V30.4766Z" fill="white"/>
<circle cx="78.5" cy="33.5" r="33.5" fill="#3330B1"/>
<path d="M84.0078 41.3887C83.3333 42.3548 82.39 43.0794 81.1777 43.5625C79.9746 44.0365 78.571 44.2734 76.9668 44.2734C75.3444 44.2734 73.9043 43.8952 72.6465 43.1387C71.3887 42.373 70.4134 41.2884 69.7207 39.8848C69.0371 38.4811 68.6862 36.8542 68.668 35.0039V33.2676C68.668 30.2689 69.3652 27.9447 70.7598 26.2949C72.1634 24.6452 74.1322 23.8203 76.666 23.8203C78.7441 23.8203 80.4167 24.3535 81.6836 25.4199C82.9505 26.4772 83.7253 27.9811 84.0078 29.9316H81.3828C80.8906 27.2975 79.3229 25.9805 76.6797 25.9805C74.9206 25.9805 73.5853 26.6003 72.6738 27.8398C71.7715 29.0703 71.3158 30.8568 71.3066 33.1992V34.8262C71.3066 37.0592 71.8171 38.8366 72.8379 40.1582C73.8587 41.4707 75.2396 42.127 76.9805 42.127C77.9648 42.127 78.8262 42.0176 79.5645 41.7988C80.3027 41.5801 80.9134 41.2109 81.3965 40.6914V36.2207H76.7891V34.0879H84.0078V41.3887ZM90.748 44H88.2188V29.207H90.748V44ZM88.0137 25.2832C88.0137 24.873 88.1367 24.5267 88.3828 24.2441C88.638 23.9616 89.0117 23.8203 89.5039 23.8203C89.9961 23.8203 90.3698 23.9616 90.625 24.2441C90.8802 24.5267 91.0078 24.873 91.0078 25.2832C91.0078 25.6934 90.8802 26.0352 90.625 26.3086C90.3698 26.582 89.9961 26.7188 89.5039 26.7188C89.0117 26.7188 88.638 26.582 88.3828 26.3086C88.1367 26.0352 88.0137 25.6934 88.0137 25.2832Z" fill="white"/>
</svg>
